<svg width="100" height="100" viewBox="0 0 100 100" fill="none" xmlns="http://www.w3.org/2000/svg">
  <circle cx="50" cy="50" r="50" fill="white"/>
  <path d="M50.8333 41.6667V58.3333H71.25C70.4167 62.9167 67.9167 66.6667 64.1667 69.1667L75.8333 77.9167C82.0833 72.0833 85.8333 63.3333 85.8333 52.9167C85.8333 49.5833 85.4167 46.4167 84.5833 43.3333H50.8333V41.6667Z" fill="#4285F4"/>
  <path d="M22.9167 59.5833L20.4167 61.6667L12.5 68.3333C19.5833 82.0833 33.75 91.6667 50 91.6667C60.8333 91.6667 69.5833 88.3333 75.8333 82.5L64.1667 73.75C60.8333 76.25 56.25 77.9167 50 77.9167C39.5833 77.9167 30.8333 71.6667 27.5 62.9167L22.9167 59.5833Z" fill="#34A853"/>
  <path d="M12.5 31.6667C8.75 39.1667 8.75 47.9167 12.5 55.4167L27.5 43.3333C25.8333 38.75 25.8333 33.75 27.5 29.1667L12.5 31.6667Z" fill="#FBBC04"/>
  <path d="M50 22.0833C56.6667 22.0833 62.5 24.5833 67.0833 28.75L77.0833 18.75C69.1667 11.25 58.75 8.33333 50 8.33333C33.75 8.33333 19.5833 17.9167 12.5 31.6667L27.5 43.3333C30.8333 34.5833 39.5833 22.0833 50 22.0833Z" fill="#EA4335"/>
</svg>