<svg width="100" height="100" viewBox="0 0 100 100" fill="none" xmlns="http://www.w3.org/2000/svg">
  <circle cx="50" cy="50" r="50" fill="#FF9500"/>
  <g transform="translate(20, 20)">
    <!-- Star 1 -->
    <path d="M12 2L14.09 8.26L21 9L15 14.74L16.18 21.02L12 18.77L7.82 21.02L9 14.74L3 9L9.91 8.26L12 2Z" fill="white"/>
    <!-- Star 2 -->
    <path d="M30 2L32.09 8.26L39 9L33 14.74L34.18 21.02L30 18.77L25.82 21.02L27 14.74L21 9L27.91 8.26L30 2Z" fill="white"/>
    <!-- Star 3 -->
    <path d="M48 2L50.09 8.26L57 9L51 14.74L52.18 21.02L48 18.77L43.82 21.02L45 14.74L39 9L45.91 8.26L48 2Z" fill="white"/>
    <!-- Thumbs up -->
    <path d="M15 35L20 30H25V45H20L15 50V35ZM27 30H45C46.1 30 47 30.9 47 32V34C47 34.55 46.78 35.05 46.41 35.41L40.83 41H32L27 36V30ZM29 32V34.5L32.17 39H38.17L42 35.17V32H29Z" fill="white"/>
  </g>
</svg>