<svg width="100" height="100" viewBox="0 0 100 100" fill="none" xmlns="http://www.w3.org/2000/svg">
  <circle cx="50" cy="50" r="50" fill="#25D366"/>
  <path d="M50 15C31.775 15 17 29.775 17 48C17 54.025 18.775 59.675 21.825 64.525L18.5 81.5L36.175 78.25C40.825 80.925 46.225 82.5 50 82.5C68.225 82.5 83 67.725 83 48C83 29.775 68.225 15 50 15ZM50 77.5C46.675 77.5 41.875 76.075 37.75 73.675L36.925 73.175L25.075 76.075L28.075 64.675L27.5 63.8C24.775 59.425 23.25 54.325 23.25 48.75C23.25 33.175 35.675 20.75 51.25 20.75C66.825 20.75 79.25 33.175 79.25 48.75C79.25 64.325 66.825 76.75 51.25 76.75H50V77.5Z" fill="white"/>
  <path d="M65.5 56.5C64.75 56.125 61.25 54.375 60.625 54.125C60 53.875 59.5 53.75 59 54.5C58.5 55.25 57.25 56.875 56.875 57.375C56.5 57.875 56.125 57.9375 55.375 57.5625C54.625 57.1875 52.125 56.375 49.125 53.75C46.75 51.75 45.125 49.25 44.75 48.5C44.375 47.75 44.6875 47.4375 45.0625 47.0625C45.4375 46.6875 45.875 46.125 46.25 45.75C46.625 45.375 46.75 45.125 47 44.625C47.25 44.125 47.125 43.75 46.9375 43.375C46.75 43 45.125 39.5 44.5 38C43.875 36.5 43.25 36.75 42.75 36.75C42.25 36.75 41.75 36.75 41.25 36.75C40.75 36.75 40 36.9375 39.375 37.6875C38.75 38.4375 36.875 40.1875 36.875 43.6875C36.875 47.1875 39.5 50.5625 39.875 51.0625C40.25 51.5625 45.125 59.125 52.625 62.125C60.125 65.125 60.125 64.125 61.375 64C62.625 63.875 65.5 62.25 66.125 60.5C66.75 58.75 66.75 57.25 66.5625 56.875C66.375 56.5 65.875 56.3125 65.125 55.9375L65.5 56.5Z" fill="white"/>
</svg>